# xmcd
#
# Track frame offsets: 
#        150
#        9665
#        21135
#        34282
#        43680
#        57200
#        68437
#        82732
#        92372
#        104550
#        117770
#        128155
#        144357
#        153147
#        162975
#        169492
#        184820
#        197050
#
# Disc length: 2767 seconds
#
# Revision: 1
# Processed by: cddbd v1.5.2PL0 Copyright (c) Steve Scherf et al.
# Submitted via: ExactAudioCopy v0.95b3
#
DISCID=e30acd12
DTITLE=Various Artist - Best Country Dance Album on Earth
DYEAR=1996
DGENRE=Country
TTITLE0=Tex Ritter - Froggy Went a Courtin'
TTITLE1=George Jones - White Lightnin'
TTITLE2=Big red Savage - Cowboys and Injuns
TTITLE3=Rusty Draper - I'm a Ramblin' Man
TTITLE4=Merle Haggard - Games People Play
TTITLE5=Faron Young - Wine me Up
TTITLE6=Freddy Fender - Jambalaya
TTITLE7=Merle Haggard - Take me Back to Tulsa
TTITLE8=Patty Loveless - Lonely Days, Lonely Nights
TTITLE9=Kathy Mattea - Ball and Chain
TTITLE10=Merle Haggard - Ida Red
TTITLE11=The Bellamy Brothers - Redneck Girl
TTITLE12=Johnny Paycheck - The Johnsons of Turkey Ridge
TTITLE13=Gunner Thompson - Teamster Plan
TTITLE14=The Oakridge Boys - Victory is Coming
TTITLE15=Merle Haggard - San Antonia Rose
TTITLE16=Lynn Anderson - I Never Promised you a Rose Garden
TTITLE17=The Bellamy Brothers - Let Your Love Flow
EXTD=
EXTT0=dfgf fg 
EXTT1=
EXTT2=
EXTT3=
EXTT4=
EXTT5=
EXTT6=
EXTT7=
EXTT8=
EXTT9=
EXTT10=
EXTT11=
EXTT12=
EXTT13=
EXTT14=
EXTT15=
EXTT16=
EXTT17=
PLAYORDER=
